<?xml version="1.0" encoding="UTF-8" standalone="no"?>
<!-- Created with Inkscape (http://www.inkscape.org/) -->

<svg
   version="1.1"
   id="svg3128"
   width="192"
   height="192"
   viewBox="0 0 192 192"
   sodipodi:docname="client-b.svg"
   inkscape:version="1.1.2 (0a00cf5339, 2022-02-04, custom)"
   xmlns:inkscape="http://www.inkscape.org/namespaces/inkscape"
   xmlns:sodipodi="http://sodipodi.sourceforge.net/DTD/sodipodi-0.dtd"
   xmlns="http://www.w3.org/2000/svg"
   xmlns:svg="http://www.w3.org/2000/svg">
  <defs
     id="defs3132" />
  <sodipodi:namedview
     id="namedview3130"
     pagecolor="#ffffff"
     bordercolor="#666666"
     borderopacity="1.0"
     inkscape:pageshadow="2"
     inkscape:pageopacity="0"
     inkscape:pagecheckerboard="0"
     showgrid="false"
     inkscape:zoom="2"
     inkscape:cx="197.25"
     inkscape:cy="173"
     inkscape:window-width="1920"
     inkscape:window-height="1017"
     inkscape:window-x="-8"
     inkscape:window-y="-8"
     inkscape:window-maximized="1"
     inkscape:current-layer="g3134" />
  <g
     inkscape:groupmode="layer"
     inkscape:label="Image"
     id="g3134">
    <path
       style="fill:#fe5454"
       d="M 11.506493,190.09433 C 6.6655231,187.86007 3.6189031,184.69431 1.5542231,179.75284 0.20022306,176.51225 0.00924306,166.00001 0.02846306,95.766494 c 0.0208,-75.913997 0.12241,-80.499758 1.86808004,-84.282119 2.23425,-4.840976 5.40002,-7.8875975 10.3414799,-9.9522722 3.24059,-1.35400484 13.75283,-1.5449789 83.98636,-1.5257658 75.913997,0.0207671 80.499757,0.12240871 84.282117,1.8680812 4.84098,2.2342547 7.8876,5.4000235 9.95227,10.3414858 1.35324,3.238757 1.54773,13.765165 1.54773,83.768471 0,70.003305 -0.19449,80.529705 -1.54773,83.768465 -2.06467,4.94146 -5.11129,8.10723 -9.95227,10.34149 -3.78396,1.74641 -8.34779,1.84612 -84.500007,1.84612 -76.1522,0 -80.71603,-0.0997 -84.5,-1.84612 z M 113.5065,152.49965 c 14.30188,-5.16689 22.5,-16.46765 22.5,-31.01528 0,-8.87393 -2.51916,-15.1496 -8.47015,-21.10058 -2.91766,-2.917658 -6.48046,-5.5999 -7.91734,-5.960534 -3.30145,-0.828609 -3.301,-1.73245 0.002,-3.500008 4.48496,-2.40028 11.00948,-10.52322 12.37773,-15.410105 2.62179,-9.364125 -0.43057,-21.813546 -6.94564,-28.328617 -8.01928,-8.018982 -15.25666,-9.568106 -45.046607,-9.641921 l -23.5,-0.05823 -0.25803,58.847279 -0.25803,58.847276 26.25803,-0.43646 c 22.050437,-0.36651 27.059237,-0.7259 31.258037,-2.24282 z M 72.006493,120.98438 V 99.984375 l 15.25,0.006 c 8.3875,0.003 17.049997,0.504135 19.250007,1.113475 9.1329,2.52962 13.44011,8.81338 13.47804,19.66306 0.0254,7.27047 -1.55662,11.61448 -5.61905,15.42903 -5.03038,4.72302 -9.99678,5.78843 -26.984717,5.78843 h -15.37428 z m 0,-51.968908 V 49.774818 l 15.77781,0.354778 c 14.487997,0.325776 16.174627,0.55915 20.632017,2.854779 6.06147,3.121761 8.59018,7.468619 8.59018,14.766517 0,9.031618 -3.48223,14.423484 -11.51365,17.827684 -2.89301,1.226228 -8.031887,1.825133 -18.736357,2.183603 l -14.75,0.493947 z"
       id="path3316" />
    <path
       style="fill:#ffffff;stroke-width:0.00176777;stroke-miterlimit:4;stroke-dasharray:none"
       d="m 55.956729,36.774041 c -0.797479,1.131353 -0.20658,2.666906 -0.38808,3.972987 -0.11499,38.134967 -0.29409,76.269862 -0.54276,114.404212 0.291289,1.57805 2.206986,0.82408 3.322794,0.94754 15.165603,-0.4311 30.366514,-0.30433 45.526847,-1.10809 4.52704,-0.21873 9.09129,-0.95492 13.19189,-2.97936 7.81902,-3.55218 14.55217,-9.93336 17.56518,-18.08004 2.9153,-7.50956 3.02947,-16.07115 0.45345,-23.68961 -2.291,-6.41996 -7.29274,-11.471239 -12.75382,-15.344013 -1.23509,-0.929614 -2.7055,-1.394738 -4.12663,-1.933842 1.99612,-1.505054 4.29977,-2.629324 5.99936,-4.517474 3.68834,-3.721105 7.19528,-7.958981 8.74285,-13.051435 1.21478,-4.731001 1.01106,-9.757644 0.0511,-14.516751 -1.36382,-6.311274 -4.5491,-12.34749 -9.62121,-16.44921 -4.66936,-4.137324 -10.87186,-5.923569 -16.94667,-6.660515 -9.854763,-1.236411 -19.813552,-1.006838 -29.724101,-1.175319 -6.765379,-8.54e-4 -13.555765,-0.09565 -20.305346,0.02912 -0.148285,0.0506 -0.296569,0.101198 -0.444854,0.151797 z m 18.09786,13.988492 c 8.662822,0.155935 17.320118,0.243285 25.964441,0.799156 4.32786,0.200034 8.48204,2.039819 11.77773,4.802455 2.86743,2.545054 4.25608,6.424437 4.17273,10.207606 0.23033,4.466391 -0.36959,9.346608 -3.40693,12.915269 -2.60043,3.134588 -6.3872,5.259817 -10.25063,6.059091 -6.508226,1.181275 -13.101592,1.128695 -19.681786,1.448164 -3.227087,0.109409 -6.454201,0.22175 -9.682136,0.302684 0,-12.178141 0,-24.356284 0,-36.534425 0.36886,0 0.737721,0 1.106581,0 z M 85.24262,101.02167 c 6.595795,0.13411 13.257096,-0.10935 19.77462,0.74434 4.65298,0.80102 9.2193,3.39568 11.55145,7.6529 1.96182,3.52984 2.53705,7.70761 2.374,11.76462 0.0972,3.16224 -0.20023,6.38717 -1.51463,9.30218 -1.31225,2.94166 -3.74237,5.40166 -6.45753,7.20883 -4.3163,2.63029 -9.42965,2.86791 -14.340544,3.19081 -7.873975,0.21284 -15.790366,0.13597 -23.681978,0.15449 0,-13.36736 0,-26.73472 0,-40.10207 4.098203,0.028 8.196409,0.0559 12.294612,0.0839 z"
       id="path2787" />
  </g>
</svg>
