<?xml version="1.0" encoding="UTF-8"?>
<svg width="192" height="192" version="1.1" viewBox="0 0 192 192" xmlns="http://www.w3.org/2000/svg">
 <g>
  <path d="m11.506 190.09c-4.841-2.2343-7.8876-5.4-9.9523-10.341-1.354-3.2406-1.545-13.753-1.5258-83.986 0.0208-75.914 0.12241-80.5 1.8681-84.282 2.2342-4.841 5.4-7.8876 10.341-9.9523 3.2406-1.354 13.753-1.545 83.986-1.5258 75.914 0.020767 80.5 0.12241 84.282 1.8681 4.841 2.2343 7.8876 5.4 9.9523 10.341 1.3532 3.2388 1.5477 13.765 1.5477 83.768 0 70.003-0.19449 80.53-1.5477 83.768-2.0647 4.9415-5.1113 8.1072-9.9523 10.341-3.784 1.7464-8.3478 1.8461-84.5 1.8461-76.152 0-80.716-0.0997-84.5-1.8461z" fill="#f9c600"/>
  <g aria-label="D">
   <path d="m66.213 49.674v92.971h19.539q24.744 0 36.195-11.211 11.531-11.211 11.531-35.395 0-24.023-11.531-35.154-11.451-11.211-36.195-11.211zm-16.176-13.293h33.232q34.754 0 51.01 14.494 16.256 14.414 16.256 45.164 0 30.91-16.336 45.404-16.336 14.494-50.93 14.494h-33.232z" fill="#fff"/>
  </g>
 </g>
</svg>
