<?xml version="1.0" encoding="UTF-8" standalone="no"?>
<!-- Created with Inkscape (http://www.inkscape.org/) -->

<svg
   version="1.1"
   id="svg9"
   width="192"
   height="192"
   viewBox="0 0 192 192"
   sodipodi:docname="client-a.svg"
   inkscape:version="1.1.2 (0a00cf5339, 2022-02-04, custom)"
   xmlns:inkscape="http://www.inkscape.org/namespaces/inkscape"
   xmlns:sodipodi="http://sodipodi.sourceforge.net/DTD/sodipodi-0.dtd"
   xmlns="http://www.w3.org/2000/svg"
   xmlns:svg="http://www.w3.org/2000/svg">
  <defs
     id="defs13" />
  <sodipodi:namedview
     id="namedview11"
     pagecolor="#ffffff"
     bordercolor="#666666"
     borderopacity="1.0"
     inkscape:pageshadow="2"
     inkscape:pageopacity="0"
     inkscape:pagecheckerboard="0"
     showgrid="false"
     inkscape:zoom="4"
     inkscape:cx="94.625"
     inkscape:cy="99.25"
     inkscape:window-width="1920"
     inkscape:window-height="1017"
     inkscape:window-x="-8"
     inkscape:window-y="-8"
     inkscape:window-maximized="1"
     inkscape:current-layer="g15" />
  <g
     inkscape:groupmode="layer"
     inkscape:label="Image"
     id="g15">
    <path
       style="fill:#1f9bed"
       d="M 11.578726,190.18451 C 6.7377563,187.95025 3.6911263,184.78448 1.6264563,179.84302 0.27244633,176.60243 0.08147633,166.09019 0.10068633,95.856663 c 0.0208,-75.913997 0.12241,-80.499758 1.86807997,-84.282119 2.23426,-4.8409754 5.40003,-7.8875969 10.3414897,-9.9522716 3.24059,-1.35400482 13.75283,-1.54497892 83.98635,-1.52576582 75.914004,0.020767 80.499764,0.1224087 84.282124,1.86808122 4.84098,2.2342547 7.8876,5.4000235 9.95227,10.3414852 1.35324,3.238757 1.54773,13.765165 1.54773,83.768471 0,70.003316 -0.19449,80.529716 -1.54773,83.768476 -2.06467,4.94146 -5.11129,8.10723 -9.95227,10.34149 -3.78396,1.74641 -8.34779,1.84612 -84.500004,1.84612 -76.1522,0 -80.71604,-0.0997 -84.5,-1.84612 z m 54.4901,-50.85818 5.5099,-15.24822 24.5,0.007 24.500004,0.007 5.62851,15.24168 5.62851,15.24168 7.62149,0.29206 c 4.92712,0.18882 7.62149,-0.0861 7.62149,-0.77756 0,-0.5883 -4.01184,-11.51973 -8.91519,-24.29207 -11.68634,-30.441662 -28.49313,-74.399154 -31.81943,-83.223356 -1.45127,-3.85 -3.05978,-7.5625 -3.57447,-8.25 -1.247,-1.665685 -12.134824,-1.665685 -13.381824,0 -0.51469,0.6875 -2.12553,4.4 -3.57964,8.25 -5.81782,15.403665 -29.29089,76.930226 -34.83082,91.296996 -3.24425,8.41335 -5.89863,15.74478 -5.89863,16.29207 0,0.59954 3.07658,0.87898 7.7401,0.703 l 7.74009,-0.29206 z m 11.89869,-33.00178 c 1.02278,-2.6125 5.40097,-14.537506 9.7293,-26.500006 4.32833,-11.9625 8.10116,-21.75 8.38407,-21.75 0.28291,0 4.059554,9.7875 8.392544,21.75 4.33298,11.9625 8.7102,23.887506 9.72714,26.500006 l 1.84898,4.75 H 96.078726 76.107916 Z"
       id="path2676" />
    <path
       style="fill:#ffffff;stroke-width:0.0025;stroke-miterlimit:4;stroke-dasharray:none"
       d="m 95.680665,36.223633 c -2.37007,0.187013 -5.352043,-0.120468 -7.056153,1.866211 -2.539942,4.658382 -4.07705,9.797185 -6.091177,14.695374 -12.081305,31.873037 -24.387232,63.659652 -36.357646,95.574852 -0.581043,2.03987 -1.76713,4.013 -1.826568,6.1536 0.726755,1.3808 2.713442,1.01481 4.027344,1.20264 4.053257,-0.0474 8.17978,0.20839 12.181152,-0.48584 1.69434,-1.00495 1.613815,-3.39471 2.485599,-4.99443 3.046089,-8.41034 6.080841,-16.82473 9.118894,-25.23799 15.931152,-0.0409 31.8623,-0.0821 47.79346,-0.12354 3.66022,9.939 7.32055,19.87796 10.98095,29.81689 1.13673,1.26443 3.18735,0.68535 4.73389,0.93165 3.67253,-0.0372 7.42022,0.41606 11.04883,-0.22364 1.64927,-0.41664 1.21826,-2.12241 0.63405,-3.26132 -6.74201,-18.87552 -14.16423,-37.5004 -21.25166,-56.247758 -7.19201,-18.61094 -14.09611,-37.336203 -21.5528,-55.842969 -0.63291,-1.434588 -1.19653,-3.23257 -3.08594,-3.236816 -1.88074,-0.49325 -3.846578,-0.585373 -5.782225,-0.586914 z m 0.45166,23.997558 C 102.6634,76.711755 108.39108,93.552782 114.75683,110.125 102.31381,110.115 89.87059,110.1534 77.427735,110.0762 83.845177,93.488287 89.532185,76.62676 96.07373,60.086944 Z"
       id="path2278" />
  </g>
</svg>
