<?xml version="1.0" encoding="UTF-8"?>
<!-- Created with Inkscape (http://www.inkscape.org/) -->
<svg width="192" height="192" version="1.1" viewBox="0 0 192 192" xmlns="http://www.w3.org/2000/svg">
 <g>
  <path d="m11.506 190.09c-4.841-2.2343-7.8876-5.4-9.9523-10.341-1.354-3.2406-1.545-13.753-1.5258-83.986 0.0208-75.914 0.12241-80.5 1.8681-84.282 2.2342-4.841 5.4-7.8876 10.341-9.9523 3.2406-1.354 13.753-1.545 83.986-1.5258 75.914 0.020767 80.5 0.12241 84.282 1.8681 4.841 2.2343 7.8876 5.4 9.9523 10.341 1.3532 3.2388 1.5477 13.765 1.5477 83.768 0 70.003-0.19449 80.53-1.5477 83.768-2.0647 4.9415-5.1113 8.1072-9.9523 10.341-3.784 1.7464-8.3478 1.8461-84.5 1.8461-76.152 0-80.716-0.0997-84.5-1.8461z" fill="#10d72e"/>
  <path d="m139.56 45.59v17.057q-8.168-7.6074-17.457-11.371-9.209-3.7637-19.619-3.7637-20.5 0-31.391 12.572-10.891 12.492-10.891 36.195 0 23.623 10.891 36.195 10.891 12.492 31.391 12.492 10.41 0 19.619-3.7637 9.2891-3.7637 17.457-11.371v16.896q-8.4883 5.7656-18.018 8.6484-9.4492 2.8828-20.02 2.8828-27.146 0-42.762-16.576-15.615-16.656-15.615-45.404 0-28.828 15.615-45.404 15.615-16.656 42.762-16.656 10.73 0 20.18 2.8828 9.5293 2.8027 17.857 8.4883z" fill="#fff"/>
 </g>
</svg>
