<svg xmlns="http://www.w3.org/2000/svg" height="192" width="192"><path d="M11.506 190.094c-4.84-2.234-7.887-5.4-9.952-10.341C.2 176.513.01 166 .028 95.766c.021-75.914.123-80.5 1.869-84.282 2.234-4.84 5.4-7.887 10.341-9.952C15.478.178 25.991-.013 96.224.006c75.914.021 80.5.123 84.282 1.868 4.841 2.235 7.888 5.4 9.953 10.342 1.353 3.239 1.548 13.765 1.548 83.768 0 70.004-.195 80.53-1.548 83.769-2.065 4.941-5.112 8.107-9.952 10.341-3.784 1.747-8.348 1.846-84.5 1.846-76.153 0-80.717-.1-84.5-1.846z" style="fill:#6a06cc;fill-opacity:1"/><text y="156" x="48" style="font-style:normal;font-variant:normal;font-weight:400;font-stretch:normal;font-size:40px;line-height:1.25;font-family:'DejaVu Sans';-inkscape-font-specification:'DejaVu Sans';letter-spacing:0;word-spacing:0;fill:#000;fill-opacity:1;stroke:none" xml:space="preserve"><tspan style="font-style:normal;font-variant:normal;font-weight:400;font-stretch:normal;font-size:164px;font-family:sans-serif;-inkscape-font-specification:sans-serif;fill:#fff" y="156" x="48">T</tspan></text></svg>
